<?xml version="1.0" encoding="utf-8"?>
<!-- Generator: Adobe Illustrator 21.0.2, SVG Export Plug-In . SVG Version: 6.00 Build 0)  -->
<svg version="1.0" id="Calque_1" xmlns="http://www.w3.org/2000/svg" xmlns:xlink="http://www.w3.org/1999/xlink" x="0px" y="0px"
	 viewBox="-947 529 24 24" style="enable-background:new -947 529 24 24;" xml:space="preserve">
<style type="text/css">
	.st0{fill:#6C6C6C;}
</style>
<path class="st0" d="M-927.7,550.8c0.4,0.4,1,0.4,1.4,0c0.4-0.4,0.4-1,0-1.4l-7.5-7.5l2.7-2.7c0.6,0.4,1.3,0.6,2.1,0.6
	c2.3,0,4.1-1.9,4.1-4.1s-1.9-4.1-4.1-4.1s-4.1,1.9-4.1,4.1c0,0.7,0.2,1.4,0.6,2.1l-2.7,2.7l-2.7-2.7c0.4-0.6,0.6-1.3,0.6-2.1
	c0-2.3-1.9-4.1-4.1-4.1s-4.1,1.9-4.1,4.1s1.9,4.1,4.1,4.1c0.7,0,1.4-0.2,2.1-0.6L-927.7,550.8z M-929,533.6c1.1,0,2.1,0.9,2.1,2.1
	s-0.9,2.1-2.1,2.1c-0.6,0-1-0.2-1.4-0.6l0,0l0,0c-0.4-0.4-0.6-0.8-0.6-1.4C-931.1,534.5-930.2,533.6-929,533.6z M-943.5,535.6
	c0-1.1,0.9-2.1,2.1-2.1s2.1,0.9,2.1,2.1c0,0.6-0.2,1-0.6,1.4l0,0l0,0c-0.4,0.4-0.8,0.6-1.4,0.6
	C-942.5,537.7-943.5,536.8-943.5,535.6z"/>
<path class="st0" d="M-937.1,545.1c0.4-0.4,0.4-1,0-1.4c-0.4-0.4-1-0.4-1.4,0l-5.7,5.7c-0.2,0.2-0.3,0.5-0.3,0.7s0.1,0.5,0.3,0.7
	c0.4,0.4,1,0.4,1.4,0L-937.1,545.1z"/>
</svg>

