<svg xmlns="http://www.w3.org/2000/svg" viewBox="0 0 1920 1080">
  <path d="M1081.9 49.6l1.8.5.2-.9-1.7-.5zM1081.5 51l1.7.5.3-1-1.7-.5zM1081.1 52.3l1.7.5.3-.9-1.7-.5zM1080.71072 53.77506l.2816-.9595 1.7271.50688-.2816.9595zM1080.3 55.1l1.7.5.3-1-1.7-.5zM1079.9 56.4l1.7.5.3-.9-1.7-.5zM1079.5 57.8l1.7.5.3-.9-1.7-.5zM1076.5 68.8l1.7.5.2-.9-1.7-.5zM1076.1 70.2l1.7.5.3-.9-1.8-.5zM1075.7 71.6l1.8.5.2-1-1.7-.4zM1075.41238 72.97812l.254-.9672 1.74096.4572-.254.9672zM1074.95464 74.39905l.252-.9677 1.74186.4536-.252.9677zM1074.6 75.8l1.8.4.2-.9-1.7-.5zM1074.3 77.1l1.7.5.3-1-1.8-.4zM1071.5 88.2l1.8.5.2-1-1.7-.4zM1071.2 89.6l1.8.4.2-.9-1.8-.4zM1070.9 91l1.7.4.2-.9-1.7-.4zM1070.62031 92.45043l.2255-.9742 1.75356.4059-.2255.9742zM1070.3 93.8l1.7.4.2-.9-1.7-.4zM1069.9 95.2l1.8.4.2-.9-1.8-.4zM1069.6 96.6l1.7.4.3-.9-1.8-.4zM1067.2 107.8l1.7.3.2-.9-1.7-.4zM1066.9 109.2l1.8.3.1-.9-1.7-.4zM1066.6 110.6l1.8.3.2-.9-1.8-.3zM1066.31234 112.07084l.1963-.9805 1.7649.35334-.1963.9805zM1066.1 113.4l1.7.3.2-.9-1.7-.3zM1065.8 114.8l1.7.3.2-.9-1.7-.3zM1065.5 116.2l1.8.3.1-.9-1.7-.3zM1063.4 127.5l1.8.3.1-1-1.7-.3zM1063.2 128.9l1.7.3.2-1-1.7-.3zM1063 130.3l1.7.3.2-1-1.8-.3zM1062.78742 131.721l.1666-.986 1.7748.29988-.1666.986zM1062.50536 133.04546l.1644-.9864 1.77552.29592-.1644.9864zM1062.2 134.5l1.8.3.2-1-1.8-.2zM1062 135.9l1.8.3.1-.9-1.7-.3zM1060.3 147.2l1.7.3.2-1-1.8-.2zM1060.1 148.6l1.7.3.2-1-1.8-.2zM1059.9 150.1l1.7.2.2-.9-1.8-.3zM1059.6786 151.39322l.1363-.9907 1.78326.24534-.1363.9907zM1059.5 152.9l1.8.2.1-.9-1.8-.3zM1059.3 154.3l1.8.2.1-.9-1.8-.2zM1059.1 155.7l1.8.3.1-1-1.8-.2zM1057.7 167.1l1.8.2.1-1-1.8-.2zM1057.6 168.5l1.7.2.1-.9-1.7-.2zM1057.4 169.9l1.8.2.1-.9-1.8-.2zM1057.31446 171.39208l.1056-.9944 1.78992.19008-.1056.9944zM1057.1 172.8l1.8.2.1-1-1.8-.2zM1057 174.2l1.7.2.1-1-1.7-.2zM1056.8 175.6l1.8.2.1-1-1.8-.1zM1055.8 187l1.8.2v-1l-1.7-.1zM1055.7 188.4l1.7.2.1-1-1.8-.1zM1055.6 189.9l1.7.1.1-1-1.8-.1zM1055.46091029 191.3243149l.0744347-.9972 1.79496.13398248-.0744347.9972zM1055.4 192.7l1.7.1.1-.9-1.8-.1zM1055.2 194.1l1.8.2.1-1-1.8-.1zM1055.1 195.6l1.8.1.1-1-1.8-.1z"/>
  <g>
    <path d="M1054.5 207l1.7.1.1-1-1.8-.1zM1054.4 208.4l1.8.1v-.9l-1.8-.1zM1054.3 209.9h1.8l.1-.9-1.8-.1zM1054.33211632 211.2752689l.0429621-.9991 1.79838.07733176-.0429621.9991zM1054.2 212.7l1.8.1v-1h-1.7zM1054.2 214.1l1.7.1.1-.9-1.8-.1zM1054.1 215.6h1.8v-.9l-1.8-.1z"/>
  </g>
  <g>
    <path d="M1053.8 227h1.8v-.9h-1.8zM1053.8 228.4l1.8.1v-1h-1.8zM1053.8 229.9h1.7v-1h-1.7zM1053.68579628 231.299184l.01120602-.9999 1.79982.02017083-.01120602.9999zM1053.7 232.7l1.8.1v-1h-1.8zM1053.7 234.2h1.8v-1h-1.8zM1053.7 235.6h1.8v-1h-1.8z"/>
  </g>
  <g>
    <path d="M1053.7 247h1.8v-.9h-1.8zM1053.8 248.5l1.8-.1-.1-.9h-1.7zM1053.8 249.9h1.8v-1h-1.8zM1053.80750484 250.42290527l1.79964-.03736053.02075585.9998-1.79964.03736053zM1053.9 252.8l1.7-.1v-.9h-1.8zM1053.9 254.2l1.8-.1v-.9h-1.8zM1053.9 255.6h1.8v-1l-1.8.1z"/>
  </g>
  <g>
    <path d="M1054.23511844 266.13068435l1.79802-.0827266.04595922.9989-1.79802.0827266zM1054.34172225 267.53342672l1.79784-.08686566.0482587.9988-1.79784.08686566zM1054.5 269.9l1.8-.1-.1-.9-1.8.1zM1054.6 271.3h1.7v-1l-1.8.1zM1054.61467141 271.86052844l1.7973-.09972962.05540534.9985-1.7973.09972962zM1054.7 274.2l1.8-.1-.1-1-1.7.1zM1054.8 275.6l1.8-.1-.1-.9-1.8.1z"/>
  </g>
  <g>
    <path d="M1055.6 287.1l1.8-.2-.1-.9-1.8.1zM1055.7 288.5l1.8-.2-.1-.9-1.7.1zM1055.9 289.9l1.7-.2-.1-.9-1.7.1zM1055.88474906 290.39206373l1.7928-.16127795.08959886.996-1.7928.16127795zM1056.1 292.8l1.8-.2-.1-1-1.8.2zM1056.2 294.2l1.8-.2-.1-.9-1.7.1zM1056.4 295.6l1.7-.2v-.9l-1.8.1z"/>
  </g>
  <g>
    <path d="M1057.6 307l1.8-.2-.1-1-1.8.2zM1057.8 308.4l1.8-.2-.1-1-1.8.3zM1058 309.8l1.8-.2-.1-1-1.8.3zM1058.08254 310.32158l1.78416-.23868.1326.9912-1.78416.23868zM1058.4 312.7l1.8-.3-.2-.9-1.7.2zM1058.6 314.1l1.7-.3-.1-.9-1.7.2zM1058.8 315.5l1.7-.2-.1-1-1.8.3z"/>
  </g>
  <g>
    <path d="M1060.6 326.8l1.7-.3-.2-.9-1.7.3zM1060.8 328.2l1.8-.3-.2-.9-1.8.3zM1061.1 329.6l1.7-.3-.1-.9-1.8.3zM1061.09565 330.0221l1.77084-.32238.1791.9838-1.77084.32238zM1061.6 332.5l1.7-.4-.1-.9-1.8.3zM1061.8 333.9l1.8-.4-.2-.9-1.7.3zM1062.1 335.3l1.7-.4-.1-.9-1.8.3z"/>
  </g>
  <g>
    <path d="M1064.4 346.5l1.7-.4-.2-.9-1.7.3zM1064.7 347.9l1.8-.4-.3-.9-1.7.3zM1065 349.3l1.8-.4-.2-1-1.8.4zM1065.09016 349.72469l1.75554-.39744.2208.9753-1.75554.39744zM1065.38841 351.07103l1.75446-.40212.2234.9747-1.75446.40212zM1066 353.5l1.7-.4-.2-1-1.7.4zM1066.3 354.9l1.7-.5-.2-.9-1.7.4z"/>
  </g>
  <g>
    <path d="M1069 366l1.7-.5-.2-.9-1.7.4zM1069.4 367.3l1.7-.4-.3-.9-1.7.4zM1069.7 368.7l1.7-.4-.2-.9-1.7.4zM1069.79566 369.24044l1.74492-.44172.2454.9694-1.74492.44172zM1070.20305 370.54737l1.74456-.44334.2463.9692-1.74456.44334zM1070.53884 371.97608l1.7442-.44496.2472.969-1.7442.44496zM1071.1 374.3l1.7-.5-.2-.9-1.7.4z"/>
  </g>
  <g>
    <path d="M1074 385.3l1.7-.4-.3-.9-1.7.4zM1074.3 386.7l1.7-.4-.2-.9-1.7.4zM1074.43324 387.09696l1.74492-.44208.2456.9694-1.74492.44208zM1074.77352 388.51774l1.74528-.44028.2446.9696-1.74528.44028zM1075.16437 389.89459l1.74582-.43866.2437.9699-1.74582.43866zM1075.7 392.3l1.7-.5-.2-.9-1.7.4zM1076.1 393.6l1.7-.4-.3-.9-1.7.4z"/>
  </g>
  <g>
    <path d="M1078.7 404.7l1.8-.4-.2-.9-1.8.4zM1079.1 406.1l1.7-.4-.2-.9-1.8.4zM1079.4 407.5l1.7-.4-.2-.9-1.7.4zM1079.47904 407.99752l1.75518-.39888.2216.9751-1.75518.39888zM1080 410.3l1.7-.4-.2-.9-1.7.4zM1080.3 411.7l1.8-.4-.3-.9-1.7.4zM1080.6 413.1l1.8-.4-.2-.9-1.8.3z"/>
  </g>
  <g>
    <path d="M1083 424.2l1.7-.3-.2-.9-1.7.3zM1083.2 425.6l1.8-.3-.2-.9-1.7.3zM1083.5 427l1.8-.3-.2-.9-1.8.3zM1083.60497 427.41145l1.76814-.33696.1872.9823-1.76814.33696zM1084 429.8l1.8-.3-.2-.9-1.7.3zM1084.3 431.3l1.8-.4-.2-.9-1.8.3zM1084.6 432.7l1.7-.4-.2-.9-1.7.3z"/>
  </g>
  <g>
    <path d="M1086.5 443.9l1.8-.3-.2-.9-1.7.2zM1086.7 445.3l1.8-.3-.2-.9-1.7.3zM1086.9 446.7l1.8-.3-.2-.9-1.7.3zM1087.02406 447.19184l1.77948-.27108.1506.9886-1.77948.27108zM1087.4 449.5l1.7-.2-.1-1-1.8.3zM1087.6 450.9l1.7-.2-.1-1-1.8.3zM1087.8 452.4l1.8-.3-.2-.9-1.8.2z"/>
  </g>
  <g>
    <path d="M1089.3 463.7l1.8-.3-.1-.9-1.8.2zM1089.5 465.1l1.7-.2-.1-1-1.7.2zM1089.6 466.5l1.8-.2-.1-1-1.8.2zM1089.63637 466.94599l1.78758-.2106.117.9931-1.78758.2106zM1090 469.3l1.7-.2-.1-.9-1.7.2zM1090.1 470.7l1.8-.2-.1-.9-1.8.2zM1090.3 472.2l1.8-.2-.1-1-1.8.2z"/>
  </g>
  <g>
    <path d="M1091.5 483.5l1.7-.1v-1l-1.8.2zM1091.6 484.9l1.8-.1-.1-1-1.8.2zM1091.7 486.4l1.8-.2-.1-1-1.8.2zM1091.80617403 486.79821161l1.79352-.15352389.08529105.9964-1.79352.15352389zM1092 489.2l1.7-.1-.1-1-1.7.1zM1092.1 490.6l1.7-.1v-1l-1.8.2zM1092.2 492l1.8-.1-.1-1-1.8.2z"/>
  </g>
  <g>
    <path d="M1093 503.4l1.7-.1v-.9l-1.8.1zM1093 504.9l1.8-.1v-1l-1.8.1zM1093.1 506.3l1.8-.1-.1-1-1.7.1zM1093.2184505 506.76211638l1.79784-.08952998.04973888.9988-1.79784.08952998zM1093.3 509.1l1.7-.1v-.9l-1.8.1zM1093.3 510.6l1.8-.1v-1l-1.8.1zM1093.4 512l1.8-.1-.1-1-1.7.1z"/>
  </g>
  <g>
    <path d="M1093.7 523.4l1.8-.1v-.9h-1.8zM1093.8 524.8h1.7v-1h-1.7zM1093.8 526.2h1.8l-.1-1-1.7.1zM1093.84612859 526.7327658l1.8-.01731283.00961824 1-1.8.01731284zM1093.8 529.1h1.8v-1h-1.8zM1093.8 530.5h1.8v-1h-1.8zM1093.8 531.9h1.8v-.9h-1.8z"/>
  </g>
  <g>
    <path d="M1093.7 543.3l1.8.1v-1h-1.8zM1093.6 544.8h1.8l.1-.9-1.8-.1zM1093.6 546.2h1.8v-.9l-1.8-.1zM1093.5664979 547.60603896l.03414285-.9994 1.79892.06145712-.03414285.9994zM1093.5 549l1.8.1v-1h-1.8zM1093.5 550.5h1.7l.1-.9-1.8-.1zM1093.4 551.9l1.8.1v-1l-1.8-.1z"/>
  </g>
  <g>
    <path d="M1092.8 563.3l1.7.1.1-1-1.8-.1zM1092.6 564.7l1.8.1.1-.9-1.8-.2zM1092.5 566.1l1.8.2.1-1-1.8-.1zM1092.35896798 567.52929556l.0795145-.9968 1.79424.14312612-.0795145.9968zM1092.3 569l1.8.1v-1l-1.7-.1zM1092.2 570.4l1.8.1v-.9l-1.7-.2zM1092.1 571.8l1.7.2.1-1-1.7-.2z"/>
  </g>
  <g>
    <path d="M1090.9 583.1l1.8.2.1-.9-1.8-.2zM1090.7 584.6l1.8.2.1-1-1.7-.2zM1090.6 586l1.7.2.1-1-1.7-.2zM1090.36909 587.26941l.1226-.9925 1.7865.22068-.1226.9925zM1090.2 588.8l1.8.2.1-.9-1.8-.3zM1090 590.2l1.8.2.1-.9-1.7-.2zM1089.9 591.6l1.7.3.1-1-1.7-.2z"/>
  </g>
  <g>
    <path d="M1088.2 602.9l1.8.3.2-1-1.8-.2zM1088 604.3l1.8.3.1-.9-1.7-.3zM1087.8 605.7l1.7.3.2-.9-1.8-.3zM1087.52776 607.13756l.1584-.9874 1.77732.28512-.1584.9874zM1087.28218 608.57778l.1606-.987 1.7766.28908-.1606.987zM1087.1 610l1.8.3.1-1-1.7-.3zM1086.9 611.4l1.7.3.2-1-1.8-.3z"/>
  </g>
  <g>
    <path d="M1084.9 622.6l1.8.3.1-.9-1.7-.3zM1084.7 624l1.7.3.2-.9-1.8-.3zM1084.4 625.4l1.8.3.1-.9-1.7-.3zM1084.13108 626.85452l.182-.9833 1.76994.3276-.182.9833zM1083.89288 628.17346l.1832-.9831 1.76958.32976-.1832.9831zM1083.6 629.6l1.8.4.1-1-1.7-.3zM1083.4 631l1.7.4.2-1-1.8-.3z"/>
  </g>
  <g>
    <path d="M1081.13359 642.27158l.1907-.9816 1.76688.34326-.1907.9816zM1080.85372 643.70044l.1907-.9816 1.76688.34326-.1907.9816zM1080.59302 645.03104l.1907-.9816 1.76688.34326-.1907.9816zM1080.42331 646.49017l.1907-.9816 1.76688.34326-.1907.9816zM1080.13124 647.90793l.1907-.9816 1.76688.34326-.1907.9816zM1079.85097 649.33689l.1907-.9816 1.76688.34326-.1907.9816zM1079.59047 650.66739l.1907-.9816 1.76688.34326-.1907.9816z"/>
  </g>
  <g>
    <path d="M1077.4 661.9l1.8.3.1-.9-1.7-.4zM1077.2 663.3l1.7.3.2-.9-1.8-.4zM1076.95392 664.67978l.1848-.9828 1.76904.33264-.1848.9828zM1076.65718 666.07752l.1838-.983 1.7694.33084-.1838.983zM1076.37744 667.51058l.1829-.9831 1.76958.32922-.1829.9831zM1076.1 668.9l1.8.3.1-.9-1.7-.3zM1075.8 670.3l1.8.3.2-.9-1.8-.3z"/>
  </g>
  <g>
    <path d="M1073.8 681.6l1.8.3.1-1-1.7-.3zM1073.6 683l1.8.3.1-1-1.7-.3zM1073.4 684.4l1.7.3.2-1-1.8-.3zM1073.13578 685.78542l.165-.9863 1.77534.297-.165.9863zM1072.92462 687.15346l.1633-.9866 1.77588.29394-.1633.9866zM1072.7 688.6l1.7.3.2-.9-1.8-.3zM1072.4 690l1.8.3.1-.9-1.7-.3z"/>
  </g>
  <g>
    <path d="M1070.7 701.3l1.7.3.2-1-1.8-.2zM1070.5 702.8l1.7.2.2-.9-1.8-.3zM1070.3 704.2l1.7.2.2-.9-1.8-.3zM1069.96172 705.619l.138-.9904 1.78272.2484-.138.9904zM1069.9 707l1.7.2.2-.9-1.8-.3zM1069.7 708.4l1.7.3.2-1-1.8-.2zM1069.5 709.8l1.7.3.2-1-1.8-.2z"/>
  </g>
  <g>
    <path d="M1068.1 721.2l1.8.2.1-1-1.8-.2zM1067.9 722.6l1.8.2.1-.9-1.8-.2zM1067.8 724l1.7.2.1-.9-1.7-.2zM1067.71087 725.41329l.1071-.9943 1.78974.19278-.1071.9943zM1067.5 726.9l1.7.2.1-1-1.7-.2zM1067.3 728.3l1.8.2.1-1-1.8-.2zM1067.2 729.7l1.7.2.1-.9-1.7-.2z"/>
  </g>
  <g>
    <path d="M1066.1 741.1l1.8.2.1-1-1.8-.1zM1066 742.5l1.8.2.1-1-1.8-.1zM1065.9 744l1.8.1.1-.9-1.8-.2zM1065.81056637 745.42660304l.07498635-.9972 1.79496.13497543-.07498635.9972zM1065.7 746.8l1.8.2v-1l-1.7-.1zM1065.6 748.3l1.8.1v-1l-1.7-.1zM1065.5 749.7l1.8.1v-1l-1.7-.1z"/>
  </g>
  <g>
    <path d="M1064.8 761.1l1.8.1v-1l-1.8-.1zM1064.7 762.5l1.8.1.1-.9-1.8-.1zM1064.7 764h1.8v-.9l-1.8-.1zM1064.6233676 765.47427706l.04386504-.999 1.7982.07895708-.04386504.999zM1064.6 766.8l1.7.1.1-1h-1.8zM1064.5 768.2l1.8.1v-.9l-1.8-.1zM1064.4 769.7h1.8v-.9l-1.7-.1z"/>
  </g>
  <g>
    <path d="M1064.1 781.1h1.8v-.9h-1.8zM1064.1 782.5l1.8.1v-1h-1.8zM1064.1 784h1.7v-1h-1.7zM1063.98846592 785.44526864l.01449621-.9999 1.79982.02609318-.0144962.9999zM1064.01891693 786.88404826l.01246812-.9999 1.79982.02244262-.01246812.9999zM1064 788.3h1.8v-1h-1.8zM1064 789.7h1.7l.1-1h-1.8z"/>
  </g>
  <g>
    <path d="M1064 801.1h1.7v-.9h-1.7zM1064 802.6l1.8-.1v-.9h-1.8zM1064 804h1.8v-1h-1.8zM1063.9967522 804.51519264l1.79982-.02578408.0143245.9999-1.79982.02578408zM1064.02900113 805.94291912l1.79982-.02949106.01638392.9999-1.79982.02949106zM1064.1 808.3l1.7-.1v-.9h-1.7zM1064.1 809.7h1.8v-1l-1.8.1z"/>
  </g>
  <g>
    <path d="M1064.4 821.1h1.8v-1l-1.8.1zM1064.5 822.6l1.8-.1-.1-.9h-1.8zM1064.5 824l1.8-.1v-.9h-1.8zM1064.60993032 824.46247612l1.79838-.07759404.0431078.9991-1.79838.07759404zM1064.7 826.9l1.7-.1v-1l-1.8.1zM1064.7 828.3l1.8-.1v-.9h-1.8zM1064.8 829.7l1.8-.1-.1-.9-1.8.1z"/>
  </g>
  <g>
    <path d="M1065.4 841.1l1.8-.1v-.9l-1.8.1zM1065.6 842.6l1.7-.2v-.9l-1.8.1zM1065.7 844l1.7-.1v-1l-1.8.1zM1065.62858046 844.43480208l1.79532-.12878953.07154974.9974-1.79532.12878953zM1065.9 846.8l1.7-.1v-.9l-1.8.1zM1066 848.3l1.7-.2v-.9l-1.8.1zM1066.1 849.7l1.7-.1v-1l-1.8.1z"/>
  </g>
  <g>
    <path d="M1067 861.1l1.8-.2-.1-.9-1.8.1zM1067.2 862.5l1.8-.1-.1-1-1.8.2zM1067.3 863.9l1.8-.1-.1-1-1.8.2zM1067.31913728 864.36386868l1.791-.17918016.09954453.995-1.791.17918016zM1067.48513 865.80086l1.79064-.1827.1015.9948-1.79064.1827zM1067.8 868.2l1.7-.2-.1-.9-1.7.2zM1067.9 869.6l1.8-.2-.1-.9-1.8.2z"/>
  </g>
  <g>
    <path d="M1069.2 881l1.8-.2-.2-1-1.7.3zM1069.4 882.4l1.7-.2-.1-.9-1.7.2zM1069.6 883.8l1.7-.2-.1-.9-1.8.2zM1069.65533 884.29238l1.78542-.2286.127.9919-1.78542.2286zM1069.7813 885.7766l1.78506-.23202.1289.9917-1.78506.23202zM1070.1 888.1l1.8-.2-.2-1-1.7.2zM1070.3 889.5l1.7-.2-.1-1-1.7.3z"/>
  </g>
  <g>
    <path d="M1071.9 900.8l1.7-.2-.1-1-1.8.3zM1072.1 902.3l1.8-.3-.2-1-1.7.3zM1072.3 903.7l1.8-.3-.2-1-1.7.3zM1072.48875 904.08935l1.77858-.27702.1539.9881-1.77858.27702zM1072.62874 905.54153l1.77804-.28026.1557.9878-1.77804.28026zM1073 907.9l1.7-.3-.1-.9-1.8.3zM1073.2 909.3l1.8-.3-.2-.9-1.7.3z"/>
  </g>
  <g>
    <path d="M1075.1 920.6l1.8-.3-.2-1-1.8.4zM1075.4 922l1.7-.3-.1-1-1.8.4zM1075.6 923.4l1.8-.3-.2-.9-1.7.3zM1075.77346 923.87889l1.77066-.324.18.9837-1.77066.324zM1075.88278 925.25473l1.76994-.32724.1818.9833-1.76994.32724zM1076.4 927.6l1.8-.3-.2-.9-1.8.3zM1076.7 929l1.7-.3-.2-.9-1.7.3z"/>
  </g>
  <g>
    <path d="M1078.9 940.3l1.7-.4-.2-.9-1.7.3zM1079.2 941.7l1.7-.4-.2-.9-1.7.3zM1079.5 943.1l1.7-.4-.2-.9-1.7.3zM1079.58007 943.50711l1.76166-.3699.2055.9787-1.76166.3699zM1079.86258 944.87974l1.76094-.37314.2073.9783-1.76094.37314zM1080.3 947.3l1.8-.4-.2-.9-1.8.3zM1080.6 948.7l1.8-.4-.2-1-1.8.4z"/>
  </g>
  <g>
    <path d="M1083.1 959.8l1.8-.4-.3-.9-1.7.4zM1083.5 961.2l1.7-.4-.2-.9-1.8.4zM1083.8 962.6l1.7-.4-.2-.9-1.7.4zM1083.84398 963.13149l1.75158-.41436.2302.9731-1.75158.41436zM1084.18791 964.40444l1.75086-.4176.232.9727-1.75086.4176zM1084.8 966.8l1.7-.4-.2-1-1.8.5zM1085.1 968.2l1.7-.4-.2-1-1.7.4z"/>
  </g>
  <g>
    <path d="M1087.9 979.3l1.7-.5-.2-.9-1.8.4zM1088.2 980.7l1.8-.5-.3-.9-1.7.4zM1088.6 982l1.7-.4-.2-.9-1.7.4zM1088.72487 982.45509l1.74078-.45774.2543.9671-1.74078.45774zM1089.06248 983.89604l1.74006-.46062.2559.9667-1.74006.46062zM1089.7 986.2l1.7-.5-.2-.9-1.8.5zM1090.1 987.6l1.7-.5-.3-.9-1.7.4z"/>
  </g>
  <g>
    <path d="M1093.1 998.6l1.7-.5-.3-.9-1.7.5zM1093.5 1000l1.7-.5-.3-.9-1.7.4zM1093.9 1001.3l1.7-.4-.3-1-1.7.5zM1093.95292 1001.7727l1.72926-.4995.2775.9607-1.72926.4995zM1094.39908 1003.06948l1.72836-.50256.2792.9602-1.72836.50256zM1095.1 1005.5l1.7-.5-.3-1-1.7.5zM1095.5 1006.8l1.7-.5-.3-.9-1.7.5z"/>
  </g>
  <g>
    <path d="M1098.8 1017.8l1.7-.5-.3-.9-1.7.5zM1099.2 1019.2l1.7-.6-.3-.9-1.7.5zM1099.6 1020.5l1.7-.5-.3-.9-1.6.5zM1099.80368 1020.95464l1.71702-.54018.3001.9539-1.71702.54018zM1100.11902 1022.31902l1.71612-.54288.3016.9534-1.71612.54288zM1100.9 1024.6l1.7-.5-.3-.9-1.7.5zM1101.4 1026l1.6-.6-.2-.9-1.7.6z"/>
  </g>
  <g>
    <path d="M1104.9 1036.8l1.7-.5-.3-.9-1.7.5zM1105.4 1038.2l1.7-.6-.3-.9-1.7.6zM1105.8 1039.6l1.7-.6-.3-.9-1.7.5zM1105.95564 1040.07148l1.70424-.57924.3218.9468-1.70424.57924zM1106.53828 1041.29576l1.70334-.58212.3234.9463-1.70334.58212zM1107.2 1043.6l1.7-.6-.3-.9-1.7.6zM1107.7 1045l1.7-.6-.4-.9-1.6.6z"/>
  </g>
  <g>
    <path d="M1111.5 1055.8l1.7-.6-.4-.9-1.7.6zM1112 1057.1l1.6-.6-.3-.9-1.7.6zM1112.5 1058.4l1.6-.6-.3-.9-1.7.6zM1112.61732 1059.02201l1.69092-.61722.3429.9394-1.69092.61722zM1113.07802 1060.19284l1.68984-.61992.3444.9388-1.68984.61992zM1113.9 1062.5l1.7-.6-.3-.9-1.7.6zM1114.4 1063.8l1.7-.6-.3-.9-1.7.6z"/>
  </g>
  <g>
    <path d="M1118.15795 1073.54865l1.68048-.64494.03583.09336-1.68048.64494zM1118.16358 1073.66051l1.68048-.64494.03583.09336-1.68048.64494zM1118.16931 1073.77237l1.68048-.64494.03583.09336-1.68048.64494zM1118.2298 1073.94l1.68048-.64494.03583.09336-1.68048.64494zM1118.23543 1074.05186l1.68048-.64494.03583.09336-1.68048.64494z"/>
    <path d="M1118.27966 1074.07202l1.68048-.64494.03583.09336-1.68048.64494z"/>
    <path d="M1118.34292 1074.05469l1.68048-.64494.03583.09336-1.68048.64494z"/>
  </g>
</svg>
